<?xml version="1.0" encoding="UTF-8" standalone="no"?>
<svg
   xmlns:dc="http://purl.org/dc/elements/1.1/"
   xmlns:cc="http://creativecommons.org/ns#"
   xmlns:rdf="http://www.w3.org/1999/02/22-rdf-syntax-ns#"
   xmlns:svg="http://www.w3.org/2000/svg"
   xmlns="http://www.w3.org/2000/svg"
   id="svg579"
   version="1.1"
   viewBox="0 0 67.168885 45.240574"
   height="45.240574mm"
   width="67.168884mm">
  <defs
     id="defs573" />
  <metadata
     id="metadata576">
    <rdf:RDF>
      <cc:Work
         rdf:about="">
        <dc:format>image/svg+xml</dc:format>
        <dc:type
           rdf:resource="http://purl.org/dc/dcmitype/StillImage" />
        <dc:title></dc:title>
      </cc:Work>
    </rdf:RDF>
  </metadata>
  <g
     transform="translate(43.613341,7.7678162)"
     id="layer1">
    <g
       style="fill:#000000"
       transform="matrix(0.35277777,0,0,-0.35277777,-158.54443,28.528916)"
       id="g12384">
      <path
         id="path12386"
         style="fill:#000000;fill-opacity:1;fill-rule:nonzero;stroke:none"
         d="M 0,0 H 46.76 C 56.56,0 63,4.2 68.6,12.6 l 28,41.72 -36.68,21.84 -14,-22.12 C 43.12,49.56 39.48,47.6 34.16,47.6 H 1.68 c -4.76,0 -8.4,-0.56 -12.32,-3.92 L -44.52,15.4 c -4.48,-3.64 -5.6,-6.16 -5.6,-8.4 0,-3.08 2.52,-5.6 5.88,-5.6 1.4,0 3.08,0.28 6.72,2.52 l 31.08,19.04 c 4.48,2.8 8.4,3.08 13.16,1.68 l 26.32,-7 v -2.8 L 0,10.64 C -4.48,10.08 -6.44,7.56 -6.44,5.32 -6.44,2.52 -4.2,0 0,0 m 23.52,-87.08 c 7.84,0 14.84,2.8 20.44,7 l -30.8,30.8 c -1.4,1.4 -1.96,2.8 -1.96,4.2 0,2.8 2.24,5.04 5.04,5.04 1.4,0 2.8,-0.56 4.2,-1.96 l 30.8,-31.08 c 4.2,5.6 6.44,12.32 6.44,19.88 0,26.6 -33.32,41.44 -64.4,41.44 -3.64,0 -7.28,-0.28 -10.92,-0.56 -0.28,-2.8 -0.28,-5.88 -0.28,-8.68 0,-31.92 15.12,-66.08 41.44,-66.08 m 31.36,-2.52 c 3.08,0 5.32,1.96 5.32,5.04 0,3.08 -3.36,5.6 -6.16,8.4 l -7.28,-7 c 3.08,-3.36 5.6,-6.44 8.12,-6.44" />
    </g>
    <path
       id="path28939"
       style="fill:#000000;fill-opacity:1;fill-rule:nonzero;stroke:none;stroke-width:0.35277775"
       d="M -7.8557845,37.472756 H 23.555546 l -2.07433,-21.92866 C 20.888546,9.6174258 17.628876,7.5430958 10.714436,7.5430958 H 4.9853255 c -6.91445,0 -10.17411,2.07433 -10.76678,8.0010002 z M -41.440231,27.199866 h 31.9052265 l 0.29633,-3.95111 H -41.440231 c -1.382887,0 -2.17311,0.98778 -2.17311,1.97556 0,0.98778 0.691444,1.97555 2.17311,1.97555 m 3.062113,-6.81566 h 26.274884 l -1.18533,-6.91445 c -0.69144,-4.0498902 -2.667,-6.0254402 -9.58144,-6.0254402 h -4.74134 c -6.91444,0 -8.889997,1.97555 -9.58144,6.0254402 z M 7.8498755,5.4687558 c 3.7535605,0 6.7168905,-2.86491 6.7168905,-6.71724 0,-3.75355 -2.96333,-6.519332 -6.7168905,-6.519332 -3.75355,0 -6.71688,2.765782 -6.71688,6.519332 0,3.85233 2.96333,6.71724 6.71688,6.71724 m -33.0905495,-0.0988 c 3.35844,0 5.92667,-2.56857 5.92667,-5.92701004 0,-3.35844996 -2.56823,-5.82789296 -5.92667,-5.82789296 -3.35844,0 -5.92667,2.469443 -5.92667,5.82789296 0,3.35844004 2.56823,5.92701004 5.92667,5.92701004" />
  </g>
</svg>
