<svg id="svg" xmlns="http://www.w3.org/2000/svg" xmlns:xlink="http://www.w3.org/1999/xlink" width="400" height="309.5022624434389" viewBox="0, 0, 400,309.5022624434389"><g id="svgg"><path id="path0" d="M51.430 13.432 C 37.178 19.638,36.107 24.191,35.648 80.543 L 35.294 123.982 22.172 124.514 L 9.050 125.045 9.050 141.256 L 9.050 157.466 22.624 157.466 L 36.199 157.466 36.199 228.054 L 36.199 298.643 57.014 298.643 L 77.828 298.643 77.828 228.054 L 77.828 157.466 97.738 157.466 L 117.647 157.466 117.647 141.176 L 117.647 124.887 98.677 124.887 C 75.618 124.887,77.533 129.038,78.220 80.543 L 78.733 44.344 97.738 43.439 L 116.742 42.534 117.265 26.697 L 117.788 10.860 87.401 10.931 C 66.083 10.980,55.347 11.727,51.430 13.432 M135.747 82.285 C 135.747 149.969,135.942 154.232,139.475 163.674 C 155.481 206.455,232.189 204.499,245.113 160.980 C 247.494 152.962,247.964 139.794,247.964 81.119 L 247.964 10.860 227.149 10.860 L 206.335 10.860 206.325 76.471 C 206.313 155.997,205.684 159.276,190.445 159.276 C 178.304 159.276,178.338 159.481,177.767 81.260 L 177.254 10.860 156.500 10.860 L 135.747 10.860 135.747 82.285 M279.109 143.439 C 279.743 302.294,278.376 295.338,309.512 298.161 L 320.362 299.145 320.362 155.003 L 320.362 10.860 299.471 10.860 L 278.579 10.860 279.109 143.439 M347.521 141.629 C 347.534 301.612,346.861 298.580,382.353 298.632 L 389.140 298.643 389.140 154.751 L 389.140 10.860 368.326 10.860 L 347.511 10.860 347.521 141.629 " stroke="none" fill="#000000" fill-rule="evenodd"></path></g></svg>