<?xml version="1.0" encoding="UTF-8" standalone="no"?>
<svg
   xmlns:dc="http://purl.org/dc/elements/1.1/"
   xmlns:cc="http://creativecommons.org/ns#"
   xmlns:rdf="http://www.w3.org/1999/02/22-rdf-syntax-ns#"
   xmlns:svg="http://www.w3.org/2000/svg"
   xmlns="http://www.w3.org/2000/svg"
   xmlns:sodipodi="http://sodipodi.sourceforge.net/DTD/sodipodi-0.dtd"
   xmlns:inkscape="http://www.inkscape.org/namespaces/inkscape"
   id="svg579"
   version="1.1"
   viewBox="0 0 42.28915 54.229352"
   height="54.229351mm"
   width="42.28915mm"
   sodipodi:docname="lubricante.svg"
   inkscape:version="0.92.3 (2405546, 2018-03-11)">
  <sodipodi:namedview
     pagecolor="#ffffff"
     bordercolor="#666666"
     borderopacity="1"
     objecttolerance="10"
     gridtolerance="10"
     guidetolerance="10"
     inkscape:pageopacity="0"
     inkscape:pageshadow="2"
     inkscape:window-width="993"
     inkscape:window-height="681"
     id="namedview10"
     showgrid="false"
     inkscape:zoom="0.40709436"
     inkscape:cx="108.17967"
     inkscape:cy="-43.014959"
     inkscape:window-x="318"
     inkscape:window-y="32"
     inkscape:window-maximized="0"
     inkscape:current-layer="svg579" />
  <defs
     id="defs573" />
  <metadata
     id="metadata576">
    <rdf:RDF>
      <cc:Work
         rdf:about="">
        <dc:format>image/svg+xml</dc:format>
        <dc:type
           rdf:resource="http://purl.org/dc/dcmitype/StillImage" />
        <dc:title />
      </cc:Work>
    </rdf:RDF>
  </metadata>
  <g
     id="g26370"
     transform="matrix(0.35277777,0,0,-0.35277777,5.938577,54.229352)"
     style="fill:#008000">
    <path
       inkscape:connector-curvature="0"
       d="m 0,0 h 86.241 c 10.92,0 16.8,5.88 16.8,16.8 v 113.961 h -39.76 v -6.44 L 8.4,108.081 C -8.12,103.321 -13.16,94.921 -14,76.441 L -16.8,16.8 C -17.36,5.88 -10.92,0 0,0 m 45.92,28.28 c -13.44,0 -23.8,10.36 -23.8,24.08 0,13.441 9.24,28.281 23.8,38.641 14.561,-10.36 23.801,-25.2 23.801,-38.641 0,-13.72 -10.36,-24.08 -23.801,-24.08 m 17.361,110.041 h 39.76 v 7 c 0,5.32 -3.08,8.4 -8.4,8.4 h -22.96 c -5.32,0 -8.4,-3.08 -8.4,-8.4 z"
       style="fill:#008000;fill-opacity:1;fill-rule:nonzero;stroke:none"
       id="path26372" />
  </g>
</svg>
