<?xml version="1.0" encoding="UTF-8" standalone="no"?>
<!-- Created with Inkscape (http://www.inkscape.org/) -->

<svg
   xmlns:dc="http://purl.org/dc/elements/1.1/"
   xmlns:cc="http://creativecommons.org/ns#"
   xmlns:rdf="http://www.w3.org/1999/02/22-rdf-syntax-ns#"
   xmlns:svg="http://www.w3.org/2000/svg"
   xmlns="http://www.w3.org/2000/svg"
   xmlns:sodipodi="http://sodipodi.sourceforge.net/DTD/sodipodi-0.dtd"
   xmlns:inkscape="http://www.inkscape.org/namespaces/inkscape"
   width="55.908222mm"
   height="50.574223mm"
   viewBox="0 0 55.908222 50.574223"
   version="1.1"
   id="svg579"
   inkscape:version="0.92.3 (2405546, 2018-03-11)"
   sodipodi:docname="semilla.svg">
  <defs
     id="defs573" />
  <sodipodi:namedview
     id="base"
     pagecolor="#ffffff"
     bordercolor="#666666"
     borderopacity="1.0"
     inkscape:pageopacity="0.0"
     inkscape:pageshadow="2"
     inkscape:zoom="0.35"
     inkscape:cx="-791.4521"
     inkscape:cy="237.43932"
     inkscape:document-units="mm"
     inkscape:current-layer="layer1"
     showgrid="false"
     inkscape:window-width="1366"
     inkscape:window-height="713"
     inkscape:window-x="0"
     inkscape:window-y="0"
     inkscape:window-maximized="1"
     fit-margin-top="0"
     fit-margin-left="0"
     fit-margin-right="0"
     fit-margin-bottom="0" />
  <metadata
     id="metadata576">
    <rdf:RDF>
      <cc:Work
         rdf:about="">
        <dc:format>image/svg+xml</dc:format>
        <dc:type
           rdf:resource="http://purl.org/dc/dcmitype/StillImage" />
        <dc:title />
      </cc:Work>
    </rdf:RDF>
  </metadata>
  <g
     inkscape:label="Capa 1"
     inkscape:groupmode="layer"
     id="layer1"
     transform="translate(-9.0776535,-161.0816)">
    <g
       id="g16600"
       transform="matrix(0.35277777,0,0,-0.35277777,37.031764,198.32082)"
       style="fill:#008000;fill-opacity:1">
      <path
         d="m 0,0 c 13.16,0 22.96,7.84 22.96,18.2 0,7.56 -3.36,11.76 -9.8,11.76 -2.8,0 -4.48,-0.28 -5.6,-1.4 0,-4.76 -1.12,-6.72 -7.56,-6.72 -6.44,0 -7.28,1.96 -7.28,6.72 -1.4,1.12 -3.08,1.4 -5.6,1.4 -6.72,0 -10.08,-4.2 -10.08,-11.76 C -22.96,7.56 -13.72,0 0,0 m -56.28,37.8 c 13.16,0 22.96,7.84 22.96,18.2 0,7.28 -3.36,11.76 -9.8,11.76 -2.8,0 -4.48,-0.56 -5.6,-1.4 0,-4.76 -1.12,-6.72 -7.56,-6.72 -6.44,0 -7.28,1.96 -7.28,6.72 -1.4,0.84 -3.08,1.4 -5.6,1.4 -6.72,0 -10.08,-4.48 -10.08,-11.76 0,-10.92 9.24,-18.2 22.96,-18.2 M 0,37.8 c 13.16,0 22.96,7.84 22.96,18.2 0,7.28 -3.36,11.76 -9.8,11.76 -2.8,0 -4.48,-0.56 -5.6,-1.4 0,-4.76 -1.12,-6.72 -7.56,-6.72 -6.44,0 -7.28,1.96 -7.28,6.72 -1.4,0.84 -3.08,1.4 -5.6,1.4 -6.72,0 -10.08,-4.48 -10.08,-11.76 0,-10.92 9.24,-18.2 22.96,-18.2 m 0,37.8 c 13.16,0 22.96,7.84 22.96,18.2 0,7.56 -3.36,11.76 -9.8,11.76 -2.8,0 -4.48,-0.28 -5.6,-1.4 0,-4.76 -1.12,-6.72 -7.56,-6.72 -6.44,0 -7.28,1.96 -7.28,6.72 -1.4,1.12 -3.08,1.4 -5.6,1.4 -6.72,0 -10.08,-4.2 -10.08,-11.76 0,-10.64 9.24,-18.2 22.96,-18.2 M -56.28,-37.8 c 13.16,0 22.96,7.84 22.96,18.2 0,7.28 -3.36,11.76 -9.8,11.76 -2.8,0 -4.48,-0.56 -5.6,-1.4 0,-4.76 -1.12,-6.72 -7.56,-6.72 -6.44,0 -7.28,1.96 -7.28,6.72 -1.4,0.84 -3.08,1.4 -5.6,1.4 -6.72,0 -10.08,-4.48 -10.08,-11.76 0,-10.92 9.24,-18.2 22.96,-18.2 m 56.28,0 c 13.16,0 22.96,7.84 22.96,18.2 0,7.28 -3.36,11.76 -9.8,11.76 -2.8,0 -4.48,-0.56 -5.6,-1.4 0,-4.76 -1.12,-6.72 -7.56,-6.72 -6.44,0 -7.28,1.96 -7.28,6.72 -1.4,0.84 -3.08,1.4 -5.6,1.4 -6.72,0 -10.08,-4.48 -10.08,-11.76 0,-10.92 9.24,-18.2 22.96,-18.2 M -56.28,0 c 13.16,0 22.96,7.84 22.96,18.2 0,7.56 -3.36,11.76 -9.8,11.76 -2.8,0 -4.48,-0.28 -5.6,-1.4 0,-4.76 -1.12,-6.72 -7.56,-6.72 -6.44,0 -7.28,1.96 -7.28,6.72 -1.4,1.12 -3.08,1.4 -5.6,1.4 -6.72,0 -10.08,-4.2 -10.08,-11.76 C -79.24,7.56 -70,0 -56.28,0 m 0,75.6 c 13.16,0 22.96,7.84 22.96,18.2 0,7.56 -3.36,11.76 -9.8,11.76 -2.8,0 -4.48,-0.28 -5.6,-1.4 0,-4.76 -1.12,-6.72 -7.56,-6.72 -6.44,0 -7.28,1.96 -7.28,6.72 -1.4,1.12 -3.08,1.4 -5.6,1.4 -6.72,0 -10.08,-4.2 -10.08,-11.76 0,-10.64 9.24,-18.2 22.96,-18.2 M 56.28,0 c 13.16,0 22.96,7.84 22.96,18.2 0,7.56 -3.36,11.76 -9.8,11.76 -2.8,0 -4.48,-0.28 -5.6,-1.4 0,-4.76 -1.12,-6.72 -7.56,-6.72 -6.44,0 -7.28,1.96 -7.28,6.72 -1.4,1.12 -3.08,1.4 -5.6,1.4 -6.72,0 -10.08,-4.2 -10.08,-11.76 C 33.32,7.56 42.56,0 56.28,0 m 0,37.8 c 13.16,0 22.96,7.84 22.96,18.2 0,7.28 -3.36,11.76 -9.8,11.76 -2.8,0 -4.48,-0.56 -5.6,-1.4 0,-4.76 -1.12,-6.72 -7.56,-6.72 -6.44,0 -7.28,1.96 -7.28,6.72 -1.4,0.84 -3.08,1.4 -5.6,1.4 -6.72,0 -10.08,-4.48 -10.08,-11.76 0,-10.92 9.24,-18.2 22.96,-18.2 m 0,37.8 c 13.16,0 22.96,7.84 22.96,18.2 0,7.56 -3.36,11.76 -9.8,11.76 -2.8,0 -4.48,-0.28 -5.6,-1.4 0,-4.76 -1.12,-6.72 -7.56,-6.72 -6.44,0 -7.28,1.96 -7.28,6.72 -1.4,1.12 -3.08,1.4 -5.6,1.4 -6.72,0 -10.08,-4.2 -10.08,-11.76 0,-10.64 9.24,-18.2 22.96,-18.2 m 0,-113.4 c 13.16,0 22.96,7.84 22.96,18.2 0,7.28 -3.36,11.76 -9.8,11.76 -2.8,0 -4.48,-0.56 -5.6,-1.4 0,-4.76 -1.12,-6.72 -7.56,-6.72 -6.44,0 -7.28,1.96 -7.28,6.72 -1.4,0.84 -3.08,1.4 -5.6,1.4 -6.72,0 -10.08,-4.48 -10.08,-11.76 0,-10.92 9.24,-18.2 22.96,-18.2"
         style="fill:#008000;fill-opacity:1;fill-rule:nonzero;stroke:none"
         id="path16602"
         inkscape:connector-curvature="0" />
    </g>
  </g>
</svg>
