<?xml version="1.0" encoding="UTF-8" standalone="no"?>
<svg
   xmlns:dc="http://purl.org/dc/elements/1.1/"
   xmlns:cc="http://creativecommons.org/ns#"
   xmlns:rdf="http://www.w3.org/1999/02/22-rdf-syntax-ns#"
   xmlns:svg="http://www.w3.org/2000/svg"
   xmlns="http://www.w3.org/2000/svg"
   id="svg579"
   version="1.1"
   viewBox="0 0 42.28915 54.229352"
   height="54.229351mm"
   width="42.28915mm">
  <defs
     id="defs573" />
  <metadata
     id="metadata576">
    <rdf:RDF>
      <cc:Work
         rdf:about="">
        <dc:format>image/svg+xml</dc:format>
        <dc:type
           rdf:resource="http://purl.org/dc/dcmitype/StillImage" />
        <dc:title></dc:title>
      </cc:Work>
    </rdf:RDF>
  </metadata>
  <g
     transform="translate(42.317194,-97.443738)"
     id="layer1">
    <g
       transform="matrix(0.35277777,0,0,-0.35277777,-114.29438,111.56273)"
       id="g31953"
       style="fill:#000000">
      <path
         id="path31955"
         style="fill:#000000;fill-opacity:1;fill-rule:nonzero;stroke:none"
         d="M 0,0 H 68.6 V 70.84 H 0 V 39.48 h 24.64 c 7,0 15.12,-0.28 19.32,-0.56 l -9.8,10.36 c -1.96,2.24 -2.8,3.64 -2.8,5.04 0,1.4 1.4,3.36 3.36,3.36 1.12,0 2.52,-0.56 3.64,-1.96 l 14,-16.52 c 2.24,-2.8 1.96,-5.04 0,-7.56 l -14,-16.52 c -1.12,-1.4 -2.52,-1.96 -3.64,-1.96 -1.96,0 -3.36,1.4 -3.36,3.64 0,1.4 0.84,2.8 2.8,4.76 l 9.8,10.36 C 39.76,31.64 31.64,31.36 24.64,31.36 H 0 Z m -77,-78.68 h 68.6 v 31.36 h -24.64 c -7,0 -15.12,0.28 -19.32,0.56 l 9.8,-10.36 c 1.96,-1.96 2.8,-3.36 2.8,-4.76 0,-2.24 -1.4,-3.64 -3.36,-3.64 -1.12,0 -2.52,0.56 -3.64,1.96 l -14,16.52 c -1.96,2.52 -2.24,4.76 0,7.56 l 14,16.52 c 1.12,1.4 2.52,1.96 3.64,1.96 1.96,0 3.36,-1.96 3.36,-3.36 0,-1.4 -0.84,-2.8 -2.8,-5.04 l -9.8,-10.36 c 4.2,0.28 12.32,0.56 19.32,0.56 H -8.4 V -7.84 H -77 Z m 18.2,80.64 c 8.4,0 13.16,4.76 13.16,11.76 0,12.32 -10.36,17.64 -31.36,17.64 0,-18.2 6.16,-29.4 18.2,-29.4 M 42.28,-77 c 13.16,0 22.96,7.84 22.96,18.2 0,7.56 -3.36,11.76 -9.8,11.76 -2.8,0 -4.48,-0.28 -5.6,-1.4 0,-4.76 -1.12,-6.72 -7.56,-6.72 -6.44,0 -7.28,1.96 -7.28,6.72 -1.4,1.12 -3.08,1.4 -5.6,1.4 -6.72,0 -10.08,-4.2 -10.08,-11.76 0,-10.64 9.24,-18.2 22.96,-18.2 m -19.32,37.8 c 13.16,0 22.96,7.84 22.96,18.2 0,7.28 -3.36,11.76 -9.8,11.76 -2.8,0 -4.48,-0.56 -5.6,-1.4 0,-4.76 -1.12,-6.72 -7.56,-6.72 -6.44,0 -7.28,1.96 -7.28,6.72 -1.4,0.84 -3.08,1.4 -5.6,1.4 C 3.36,-9.24 0,-13.72 0,-21 0,-31.92 9.24,-39.2 22.96,-39.2 m -81.76,77 c 8.4,0 13.16,5.32 13.16,13.16 0,10.92 -10.36,16.24 -31.36,16.24 0,-19.04 6.16,-29.4 18.2,-29.4 M -26.6,1.96 c 12.04,0 17.92,11.2 17.92,29.4 -21,0 -31.08,-5.32 -31.08,-17.64 0,-7 4.76,-11.76 13.16,-11.76 m 0,35.84 c 12.04,0 17.92,10.36 17.92,29.4 -21,0 -31.08,-5.32 -31.08,-16.24 0,-7.84 4.76,-13.16 13.16,-13.16" />
    </g>
    <g
       style="fill:#000000"
       transform="matrix(0.35277777,0,0,-0.35277777,-36.378617,151.67309)"
       id="g26370">
      <path
         id="path26372"
         style="fill:#000000;fill-opacity:1;fill-rule:nonzero;stroke:none"
         d="m 0,0 h 86.241 c 10.92,0 16.8,5.88 16.8,16.8 v 113.961 h -39.76 v -6.44 L 8.4,108.081 C -8.12,103.321 -13.16,94.921 -14,76.441 L -16.8,16.8 C -17.36,5.88 -10.92,0 0,0 m 45.92,28.28 c -13.44,0 -23.8,10.36 -23.8,24.08 0,13.441 9.24,28.281 23.8,38.641 14.561,-10.36 23.801,-25.2 23.801,-38.641 0,-13.72 -10.36,-24.08 -23.801,-24.08 m 17.361,110.041 h 39.76 v 7 c 0,5.32 -3.08,8.4 -8.4,8.4 h -22.96 c -5.32,0 -8.4,-3.08 -8.4,-8.4 z" />
    </g>
  </g>
</svg>
