<?xml version="1.0" encoding="UTF-8" standalone="no"?>
<svg
   xmlns:dc="http://purl.org/dc/elements/1.1/"
   xmlns:cc="http://creativecommons.org/ns#"
   xmlns:rdf="http://www.w3.org/1999/02/22-rdf-syntax-ns#"
   xmlns:svg="http://www.w3.org/2000/svg"
   xmlns="http://www.w3.org/2000/svg"
   xmlns:sodipodi="http://sodipodi.sourceforge.net/DTD/sodipodi-0.dtd"
   xmlns:inkscape="http://www.inkscape.org/namespaces/inkscape"
   viewBox="0 0 291.57522 63.3206"
   height="63.320599"
   width="291.57523"
   version="1.1"
   id="svg"
   sodipodi:docname="ypf-agro.svg"
   inkscape:version="0.92.3 (2405546, 2018-03-11)">
  <sodipodi:namedview
     pagecolor="#ffffff"
     bordercolor="#666666"
     borderopacity="1"
     objecttolerance="10"
     gridtolerance="10"
     guidetolerance="10"
     inkscape:pageopacity="0"
     inkscape:pageshadow="2"
     inkscape:window-width="828"
     inkscape:window-height="710"
     id="namedview16"
     showgrid="false"
     inkscape:zoom="1.2586803"
     inkscape:cx="145.78761"
     inkscape:cy="31.660299"
     inkscape:window-x="0"
     inkscape:window-y="0"
     inkscape:window-maximized="0"
     inkscape:current-layer="svg" />
  <metadata
     id="metadata98">
    <rdf:RDF>
      <cc:Work
         rdf:about="">
        <dc:format>image/svg+xml</dc:format>
        <dc:type
           rdf:resource="http://purl.org/dc/dcmitype/StillImage" />
        <dc:title />
      </cc:Work>
    </rdf:RDF>
  </metadata>
  <defs
     id="defs96" />
  <g
     style="fill:#00ae42;fill-opacity:1"
     transform="matrix(0.51480161,0,0,0.51480161,41.433728,-62.303896)"
     id="g309">
    <path
       style="fill:#00ae42;fill-opacity:1"
       d="m 230.09792,148.72506 c 0,-20.7 -8,-27.7 -31.7,-27.7 -10.2,0 -21.1,1.5 -34.2,4 l 1.5,13.1 c 11.6,-1.8 22.2,-2.9 29.1,-2.9 14.6,0 18.6,3.3 18.6,12.7 v 8.7 c -45.1,1.8 -51.7,9.1 -51.7,30.2 0,16.4 7.6,25.5 26.2,25.5 13.5,0 22.6,-3.6 26.9,-11.6 h 1.1 l 2.5,9.8 h 13.5 l -1.8,-21.8 z m -16.7,32.4 c 0,12.4 -5.8,17.5 -20,17.5 -11.6,0 -14.2,-3.6 -14.2,-14.2 0,-12 5.8,-13.8 34.2,-14.9 z"
       id="path266" />
    <path
       style="fill:#00ae42;fill-opacity:1"
       d="m 368.09792,134.82506 h -1.1 l -1.8,-12 h -13.5 l 1.8,18.2 v 69.5 h 16.7 v -56.7 c 0,-15.7 3.6,-17.5 27.7,-16.7 l 1.8,-14.9 c -2.9,-0.4 -4.7,-0.4 -6.9,-0.4 -11.6,-0.1 -20,2.8 -24.7,13 z"
       id="path268" />
    <path
       style="fill:#00ae42;fill-opacity:1"
       d="m 289.79792,121.02506 c -24.4,0 -34.2,8.4 -34.2,28.4 0,12 3.3,19.8 10.7,24.3 -5.1,6.4 -7.5,12.7 -7.5,18.3 0,4.3 1.4,8.1 4.1,10.9 -4.5,6.8 -7,14.1 -7,20.4 0,12.7 8,20.7 29.5,20.7 32.8,0 46.6,-8 46.6,-28 0,-16.7 -6.9,-22.2 -27.3,-22.2 h -22.9 c -5.8,0 -8,-3.3 -8,-7.3 0,-2.9 1.1,-5.9 3,-9.1 3.8,0.7 8.1,1.1 13,1.1 24,0 33.5,-8.4 33.5,-29.1 0,-6.4 -1,-11.6 -3.1,-15.8 l 15.5,-1 0.7,-9.8 h -30.5 c -4.4,-1.2 -9.7,-1.8 -16.1,-1.8 z m -11.6,87.4 h 24.4 c 10.2,0 12.7,1.8 12.7,9.5 0,10.2 -6.2,12 -25.5,12 -15.3,0 -19.3,-2.2 -19.3,-10.6 0,-5 0.7,-7.6 2.1,-11.4 1.7,0.3 3.6,0.5 5.6,0.5 z m 11.6,-42.3 c -12.7,0 -17.1,-4.4 -17.1,-16.7 0,-12.4 4.4,-16 17.1,-16 12.4,0 16.4,3.6 16.4,16 0,12.4 -4,16.7 -16.4,16.7 z"
       id="path270" />
    <path
       style="fill:#00ae42;fill-opacity:1"
       d="m 448.49792,121.02506 c -28.8,0 -37.1,11.3 -37.1,45.5 0,34.6 8.3,45.9 37.1,45.9 29.1,0 37.4,-11.3 37.4,-45.9 0.1,-34.2 -8.2,-45.5 -37.4,-45.5 z m 0,77.5 c -16.7,0 -19.6,-6.2 -19.6,-32 0,-25.5 2.9,-31.7 19.6,-31.7 17.1,0 20,6.2 20,31.7 0,25.8 -2.9,32 -20,32 z"
       id="path272" />
  </g>
  <g
     transform="matrix(0.50542702,0,0,0.50542702,46.19708,-64.142686)"
     style="fill:#000000"
     id="g314">
    <path
       style="fill:#000000"
       d="m -9.602079,127.02506 c 0,0 -2.9,1.2 -6.9,6.1 l -22,27.5 v 16.4 c 0,4.3 1.6,6.3 1.6,6.3 h -27.4 c 0,0 1.7,-2 1.7,-6.3 v -16.4 l -21.8,-27.2 c -4,-5 -7,-6.4 -7,-6.4 h 27.7 c 0,0 0.8,2.8 3.7,7.2 l 9.2,14.1 h 0.3 l 9.3,-14.1 c 3.1,-4.4 3.9,-7.2 3.9,-7.2 z"
       id="path274" />
    <path
       style="fill:#000000"
       d="m 45.397921,127.02506 h -45.5 c 0,0 1.7,2 1.7,6.3 v 43.8 c 0,4.3 -1.7,6.2 -1.7,6.2 h 27.4 c 0,0 -1.6,-2 -1.6,-6.3 v -13.6 h 19.8 c 12.6,0 22,-6.5 22,-18.2 -0.1,-11.7 -9.2,-18.2 -22.1,-18.2 z m -12.2,26.2 h -7.6 v -15.7 h 7.7 c 5.6,0 10,2.2 10,7.8 0,5.5 -4.5,7.9 -10.1,7.9 z"
       id="path276" />
    <path
       style="fill:#000000"
       d="m 138.09792,140.22506 c 0,0 -2.5,-1.6 -6.8,-1.6 h -27.2 v 13.5 h 21.9 c 4.2,0 7.3,-1 7.3,-1 v 13.4 c 0,0 -3.1,-1.2 -7.4,-1.2 h -21.8 v 13.6 c 0,4.2 1.5,6.2 1.5,6.2 H 78.297921 c 0,0 1.7,-1.9 1.7,-6.2 v -43.7 c 0,-4.3 -1.7,-6.2 -1.7,-6.2 h 59.799999 z"
       id="path278" />
  </g>
</svg>
