<?xml version="1.0" encoding="UTF-8" standalone="no"?>
<svg
   xmlns:dc="http://purl.org/dc/elements/1.1/"
   xmlns:cc="http://creativecommons.org/ns#"
   xmlns:rdf="http://www.w3.org/1999/02/22-rdf-syntax-ns#"
   xmlns:svg="http://www.w3.org/2000/svg"
   xmlns="http://www.w3.org/2000/svg"
   xmlns:sodipodi="http://sodipodi.sourceforge.net/DTD/sodipodi-0.dtd"
   xmlns:inkscape="http://www.inkscape.org/namespaces/inkscape"
   viewBox="0 0 71.485602 222.67205"
   height="222.67204"
   width="71.485603"
   version="1.1"
   id="svg"
   sodipodi:docname="ypf-full-vertical.svg"
   inkscape:version="0.92.3 (2405546, 2018-03-11)">
  <sodipodi:namedview
     pagecolor="#ffffff"
     bordercolor="#666666"
     borderopacity="1"
     objecttolerance="10"
     gridtolerance="10"
     guidetolerance="10"
     inkscape:pageopacity="0"
     inkscape:pageshadow="2"
     inkscape:window-width="1079"
     inkscape:window-height="716"
     id="namedview16"
     showgrid="false"
     inkscape:zoom="1.6783124"
     inkscape:cx="-42.311795"
     inkscape:cy="113.33602"
     inkscape:window-x="0"
     inkscape:window-y="0"
     inkscape:window-maximized="0"
     inkscape:current-layer="svg"
     fit-margin-top="0"
     fit-margin-left="0"
     fit-margin-right="0"
     fit-margin-bottom="0" />
  <metadata
     id="metadata98">
    <rdf:RDF>
      <cc:Work
         rdf:about="">
        <dc:format>image/svg+xml</dc:format>
        <dc:type
           rdf:resource="http://purl.org/dc/dcmitype/StillImage" />
        <dc:title></dc:title>
      </cc:Work>
    </rdf:RDF>
  </metadata>
  <defs
     id="defs96" />
  <g
     style="fill:#0077c0;fill-opacity:0.78431373"
     id="svgg"
     transform="matrix(0,0.24796852,-0.24796852,0,74.178543,126.17757)">
    <path
       inkscape:connector-curvature="0"
       d="M 51.43,13.432 C 37.178,19.638 36.107,24.191 35.648,80.543 l -0.354,43.439 -13.122,0.532 -13.122,0.531 v 16.211 16.21 h 13.574 13.575 v 70.588 70.589 h 20.815 20.814 v -70.589 -70.588 h 19.91 19.909 v -16.29 -16.289 h -18.97 c -23.059,0 -21.144,4.151 -20.457,-44.344 l 0.513,-36.199 19.005,-0.905 19.004,-0.905 0.523,-15.837 0.523,-15.837 -30.387,0.071 C 66.083,10.98 55.347,11.727 51.43,13.432 m 84.317,68.853 c 0,67.684 0.195,71.947 3.728,81.389 16.006,42.781 92.714,40.825 105.638,-2.694 2.381,-8.018 2.851,-21.186 2.851,-79.861 V 10.86 h -20.815 -20.814 l -0.01,65.611 c -0.012,79.526 -0.641,82.805 -15.88,82.805 -12.141,0 -12.107,0.205 -12.678,-78.016 l -0.513,-70.4 H 156.5 135.747 v 71.425 m 143.362,61.154 c 0.634,158.855 -0.733,151.899 30.403,154.722 l 10.85,0.984 V 155.003 10.86 h -20.891 -20.892 l 0.53,132.579 m 68.412,-1.81 c 0.013,159.983 -0.66,156.951 34.832,157.003 l 6.787,0.011 V 154.751 10.86 h -20.814 -20.815 l 0.01,130.769"
       id="path0"
       style="fill:#0077c0;fill-opacity:0.78431373;fill-rule:evenodd;stroke:none" />
  </g>
  <g
     transform="matrix(0,0.50542702,-0.50542702,0,114.17247,46.19708)"
     style="fill:#000000"
     id="g314">
    <path
       inkscape:connector-curvature="0"
       style="fill:#000000"
       d="m -9.602079,127.02506 c 0,0 -2.9,1.2 -6.9,6.1 l -22,27.5 v 16.4 c 0,4.3 1.6,6.3 1.6,6.3 h -27.4 c 0,0 1.7,-2 1.7,-6.3 v -16.4 l -21.8,-27.2 c -4,-5 -7,-6.4 -7,-6.4 h 27.7 c 0,0 0.8,2.8 3.7,7.2 l 9.2,14.1 h 0.3 l 9.3,-14.1 c 3.1,-4.4 3.9,-7.2 3.9,-7.2 z"
       id="path274" />
    <path
       inkscape:connector-curvature="0"
       style="fill:#000000"
       d="m 45.397921,127.02506 h -45.5 c 0,0 1.7,2 1.7,6.3 v 43.8 c 0,4.3 -1.7,6.2 -1.7,6.2 h 27.4 c 0,0 -1.6,-2 -1.6,-6.3 v -13.6 h 19.8 c 12.6,0 22,-6.5 22,-18.2 -0.1,-11.7 -9.2,-18.2 -22.1,-18.2 z m -12.2,26.2 h -7.6 v -15.7 h 7.7 c 5.6,0 10,2.2 10,7.8 0,5.5 -4.5,7.9 -10.1,7.9 z"
       id="path276" />
    <path
       inkscape:connector-curvature="0"
       style="fill:#000000"
       d="m 138.09792,140.22506 c 0,0 -2.5,-1.6 -6.8,-1.6 h -27.2 v 13.5 h 21.9 c 4.2,0 7.3,-1 7.3,-1 v 13.4 c 0,0 -3.1,-1.2 -7.4,-1.2 h -21.8 v 13.6 c 0,4.2 1.5,6.2 1.5,6.2 H 78.297921 c 0,0 1.7,-1.9 1.7,-6.2 v -43.7 c 0,-4.3 -1.7,-6.2 -1.7,-6.2 h 59.799999 z"
       id="path278" />
  </g>
</svg>
