<?xml version="1.0" encoding="UTF-8" standalone="no"?>
<svg
   xmlns:dc="http://purl.org/dc/elements/1.1/"
   xmlns:cc="http://creativecommons.org/ns#"
   xmlns:rdf="http://www.w3.org/1999/02/22-rdf-syntax-ns#"
   xmlns:svg="http://www.w3.org/2000/svg"
   xmlns="http://www.w3.org/2000/svg"
   xmlns:sodipodi="http://sodipodi.sourceforge.net/DTD/sodipodi-0.dtd"
   xmlns:inkscape="http://www.inkscape.org/namespaces/inkscape"
   id="svg579"
   version="1.1"
   viewBox="0 0 52.746628 49.783295"
   height="49.783295mm"
   width="52.746628mm"
   sodipodi:docname="fertilizante.svg"
   inkscape:version="0.92.3 (2405546, 2018-03-11)">
  <sodipodi:namedview
     pagecolor="#ffffff"
     bordercolor="#666666"
     borderopacity="1"
     objecttolerance="10"
     gridtolerance="10"
     guidetolerance="10"
     inkscape:pageopacity="0"
     inkscape:pageshadow="2"
     inkscape:window-width="1366"
     inkscape:window-height="713"
     id="namedview84"
     showgrid="false"
     inkscape:zoom="1.2542695"
     inkscape:cx="99.678667"
     inkscape:cy="94.078667"
     inkscape:window-x="0"
     inkscape:window-y="0"
     inkscape:window-maximized="1"
     inkscape:current-layer="svg579" />
  <defs
     id="defs573" />
  <metadata
     id="metadata576">
    <rdf:RDF>
      <cc:Work
         rdf:about="">
        <dc:format>image/svg+xml</dc:format>
        <dc:type
           rdf:resource="http://purl.org/dc/dcmitype/StillImage" />
        <dc:title />
      </cc:Work>
    </rdf:RDF>
  </metadata>
  <g
     transform="translate(220.64685,4.4917785)"
     id="layer1"
     style="fill:#008000">
    <g
       style="fill:#008000"
       transform="matrix(0.35277777,0,0,-0.35277777,-220.64685,-0.3431119)"
       id="g2496">
      <path
         id="path2498"
         style="fill:#008000;fill-opacity:1;fill-rule:nonzero;stroke:none"
         d="m 0,0 c 0,-39.76 19.04,-82.599 51.799,-82.599 10.08,0 19.32,3.92 26.6,9.8 l -38.64,38.359 c -1.679,1.68 -2.519,3.64 -2.519,5.32 0,2.52 2.24,4.48 4.759,4.48 1.68,0 3.36,-0.56 5.32,-2.24 l 38.36,-38.919 c 5.88,7.28 8.96,15.96 8.96,25.76 C 94.639,-7 52.919,11.76 14,11.76 9.52,11.76 5.04,11.2 0.56,10.92 0,7.56 0,3.64 0,0 m 89.599,-82.039 v -41.439 c 0,-3.92 2.8,-5.88 5.6,-5.88 2.8,0 5.6,1.96 5.6,5.88 v 41.439 z m 11.76,26.6 c 0,-4.76 1.12,-8.68 3.36,-12.32 l 17.079,17.36 c 1.12,1.12 2.24,1.96 3.92,1.96 1.96,0 3.64,-1.68 3.64,-3.64 0,-1.96 -0.84,-3.08 -1.96,-4.2 l -16.799,-16.8 c 3.36,-2.52 7.84,-3.92 12.599,-3.92 16.8,0 26.32,21.84 26.32,42.279 v 5.6 c -2.24,0 -4.76,0.28 -7,0.28 -19.88,0 -41.159,-9.519 -41.159,-26.599" />
    </g>
  </g>
</svg>
