<?xml version="1.0" encoding="UTF-8" standalone="no"?>
<!-- Created with Inkscape (http://www.inkscape.org/) -->

<svg
   xmlns:dc="http://purl.org/dc/elements/1.1/"
   xmlns:cc="http://creativecommons.org/ns#"
   xmlns:rdf="http://www.w3.org/1999/02/22-rdf-syntax-ns#"
   xmlns:svg="http://www.w3.org/2000/svg"
   xmlns="http://www.w3.org/2000/svg"
   xmlns:sodipodi="http://sodipodi.sourceforge.net/DTD/sodipodi-0.dtd"
   xmlns:inkscape="http://www.inkscape.org/namespaces/inkscape"
   width="48.400757mm"
   height="75.070755mm"
   viewBox="0 0 48.400757 75.070755"
   version="1.1"
   id="svg579"
   inkscape:version="0.92.3 (2405546, 2018-03-11)"
   sodipodi:docname="combustible.svg">
  <defs
     id="defs573" />
  <sodipodi:namedview
     id="base"
     pagecolor="#ffffff"
     bordercolor="#666666"
     borderopacity="1.0"
     inkscape:pageopacity="0.0"
     inkscape:pageshadow="2"
     inkscape:zoom="0.80600618"
     inkscape:cx="72.730983"
     inkscape:cy="72.730983"
     inkscape:document-units="mm"
     inkscape:current-layer="layer1"
     showgrid="false"
     inkscape:window-width="1366"
     inkscape:window-height="713"
     inkscape:window-x="0"
     inkscape:window-y="0"
     inkscape:window-maximized="1"
     fit-margin-top="0"
     fit-margin-left="0"
     fit-margin-right="0"
     fit-margin-bottom="0" />
  <metadata
     id="metadata576">
    <rdf:RDF>
      <cc:Work
         rdf:about="">
        <dc:format>image/svg+xml</dc:format>
        <dc:type
           rdf:resource="http://purl.org/dc/dcmitype/StillImage" />
        <dc:title />
      </cc:Work>
    </rdf:RDF>
  </metadata>
  <g
     inkscape:label="Capa 1"
     inkscape:groupmode="layer"
     id="layer1"
     transform="translate(-6.7936688,-8.4884312)">
    <g
       id="g21083"
       transform="matrix(0.35277777,0,0,-0.35277777,6.7936688,66.766966)"
       style="fill:#008000;fill-opacity:1"
       inkscape:export-xdpi="96.5"
       inkscape:export-ydpi="96.5">
      <path
         d="m 0,0 h 54.04 c 21,0 31.36,10.08 31.36,30.8 v 83.44 L 71.4,127.399 14.28,70.28 C 4.2,60.2 0,49.84 0,35.84 Z M 12.6,-47.6 H 35 v 22.4 H 12.6 Z M 0,-18.48 h 49 v 11.2 H 0 Z M 47.88,11.2 v 57.12 c 0,3.64 1.4,5.32 4.48,5.32 3.08,0 4.48,-1.68 4.48,-5.32 V 21.28 c 5.32,0 8.4,1.68 8.4,8.4 v 39.48 c 0,9.8 -1.68,13.16 -8.4,17.08 l 6.44,6.44 c 1.96,1.96 4.2,2.8 5.88,2.8 3.36,0 5.04,-2.52 5.04,-6.44 V 30.8 C 74.2,17.08 68.04,11.2 54.04,11.2 Z m 42.56,109.759 27.44,36.12 -8.68,8.12 -31.92,-32.2 z m 33.039,-15.119 c 7.84,0 13.72,6.16 13.72,13.999 0,8.12 -5.32,17.36 -13.72,24.92 -8.399,-7.56 -13.719,-16.8 -13.719,-24.92 0,-7.839 5.88,-13.999 13.719,-13.999"
         style="fill:#008000;fill-opacity:1;fill-rule:nonzero;stroke:none"
         id="path21085"
         inkscape:connector-curvature="0" />
    </g>
  </g>
</svg>
