<?xml version="1.0" encoding="UTF-8" standalone="no"?>
<svg
   xmlns:dc="http://purl.org/dc/elements/1.1/"
   xmlns:cc="http://creativecommons.org/ns#"
   xmlns:rdf="http://www.w3.org/1999/02/22-rdf-syntax-ns#"
   xmlns:svg="http://www.w3.org/2000/svg"
   xmlns="http://www.w3.org/2000/svg"
   xmlns:sodipodi="http://sodipodi.sourceforge.net/DTD/sodipodi-0.dtd"
   xmlns:inkscape="http://www.inkscape.org/namespaces/inkscape"
   id="1c1dccd4-ac79-11e9-b988-d0509959ae10"
   version="1.1"
   width="120"
   height="120"
   sodipodi:docname="logo.svg"
   inkscape:version="0.92.3 (2405546, 2018-03-11)">
  <sodipodi:namedview
     pagecolor="#ffffff"
     bordercolor="#666666"
     borderopacity="1"
     objecttolerance="10"
     gridtolerance="10"
     guidetolerance="10"
     inkscape:pageopacity="0"
     inkscape:pageshadow="2"
     inkscape:window-width="521"
     inkscape:window-height="427"
     id="namedview3763"
     showgrid="false"
     inkscape:zoom="4.7624371"
     inkscape:cx="137.50261"
     inkscape:cy="51.336318"
     inkscape:window-x="530"
     inkscape:window-y="214"
     inkscape:window-maximized="0"
     inkscape:current-layer="1c1dccd4-ac79-11e9-b988-d0509959ae10"
     showguides="true"
     inkscape:guide-bbox="true" />
  <metadata
     id="metadata11">
    <rdf:RDF>
      <cc:Work
         rdf:about="">
        <dc:format>image/svg+xml</dc:format>
        <dc:type
           rdf:resource="http://purl.org/dc/dcmitype/StillImage" />
        <dc:title></dc:title>
        <dc:creator>
          <cc:Agent>
            <dc:title>Roberto West</dc:title>
          </cc:Agent>
        </dc:creator>
      </cc:Work>
    </rdf:RDF>
  </metadata>
  <defs
     id="defs9" />
  <path
     inkscape:connector-curvature="0"
     id="path3793"
     d="m 68.02845,562.3606 v -243.5 h 784 783.99995 v 243.5 243.5 h -783.99995 -784 z"
     style="fill:#fcfcfc" />
  <g
     id="g56"
     transform="matrix(0.30078968,0,0,0.30008088,154.97385,41.842928)">
    <path
       style="fill:#f9ce1c;stroke-width:0.82059789"
       d="m -361.40011,119.41133 c -7.14127,-2.45927 -13.44208,-6.81585 -20.20812,-13.97253 -9.56055,-10.112549 -13.13357,-19.224003 -12.41538,-31.660196 0.52137,-9.028236 3.7698,-15.604097 11.63758,-23.558177 6.97467,-7.051189 13.69199,-11.712181 23.75406,-16.48239 12.20673,-5.786959 20.68224,-7.978463 31.2455,-8.079123 11.54564,-0.110037 14.60419,1.24444 23.76988,10.526254 10.03126,10.158384 14.34178,20.303306 14.34178,33.753754 0,12.309489 -3.07567,19.867727 -11.82331,29.054909 -16.50326,17.332489 -43.10525,26.339589 -60.30199,20.417499 z"
       id="path3932"
       inkscape:connector-curvature="0"
       sodipodi:nodetypes="ccsssccssc" />
    <path
       style="fill:#abc642;stroke-width:0.82059789"
       d="m -378.31619,250.26329 c -50.11929,-16.68948 -90.69514,-51.96062 -114.44352,-99.48166 -3.34403,-6.69151 -6.08007,-12.67613 -6.08007,-13.29918 0,-1.46371 13.91576,-13.65166 25.84172,-22.63319 23.84468,-17.95756 39.92978,-22.99866 52.6415,-16.49792 4.65846,2.38233 9.78994,8.36699 18.55546,21.64054 11.9119,18.03809 19.81455,25.15249 31.25828,28.14043 24.61861,6.42786 65.07921,-13.21376 123.04612,-59.73282 31.83673,-25.549296 49.39301,-41.290872 107.74044,-96.603834 4.44162,-4.210636 8.41495,-7.445525 8.82961,-7.18862 1.14798,0.711214 8.72726,24.494502 10.63198,33.362575 4.06529,18.927256 5.45228,46.083479 3.34649,65.521809 -3.97335,36.67747 -19.72277,74.54603 -43.1217,103.68359 -22.90031,28.51667 -55.84864,51.28631 -91.29051,63.08828 -20.39974,7.24633 -44.3525,10.42734 -59.43919,10.52761 -23.05285,1.53241 -47.37714,-4.19716 -67.51661,-10.52761 z"
       id="path3928"
       inkscape:connector-curvature="0"
       sodipodi:nodetypes="csssssssscsssccc" />
    <path
       style="fill:#4f6389;stroke-width:0.82059789"
       d="m -506.84196,114.81293 c -5.03462,-18.759409 -8.0304,-39.32336 -8.08028,-53.996802 1.28438,-38.116939 14.05023,-79.939556 33.05916,-109.271626 32.75031,-48.008199 99.79818,-90.621852 166.34483,-90.623322 22.70724,0.1757 43.57504,4.80414 62.66346,11.02799 35.42266,11.62762 66.54845,32.907886 90.58414,61.931125 6.58819,7.955286 18.45979,25.325853 18.45979,27.010452 0,1.473649 -26.15672,28.759446 -39.71061,41.4247525 -27.77151,25.9508065 -46.64085,39.0883435 -63.4129,44.1504215 -4.81512,1.453281 -7.42577,1.742643 -13.21764,1.465056 -11.44024,-0.548292 -15.17685,-2.799261 -32.37369,-19.502255 -15.36053,-14.919409 -21.35269,-18.9598805 -32.41803,-21.8592355 -9.49829,-2.48877 -24.62816,-0.38073 -38.54148,5.3699875 -32.0803,13.259542 -73.1882,44.356251 -128.96289,97.555926 -6.27715,5.98735 -11.71145,10.88609 -12.07623,10.88609 -0.36478,0 -1.40771,-2.50585 -2.31763,-5.56856 z"
       id="path3924"
       inkscape:connector-curvature="0"
       sodipodi:nodetypes="cccccsssssscsssc" />
  </g>
</svg>
