<?xml version="1.0" encoding="UTF-8" standalone="no"?>
<svg
   xmlns:dc="http://purl.org/dc/elements/1.1/"
   xmlns:cc="http://creativecommons.org/ns#"
   xmlns:rdf="http://www.w3.org/1999/02/22-rdf-syntax-ns#"
   xmlns:svg="http://www.w3.org/2000/svg"
   xmlns="http://www.w3.org/2000/svg"
   xmlns:sodipodi="http://sodipodi.sourceforge.net/DTD/sodipodi-0.dtd"
   xmlns:inkscape="http://www.inkscape.org/namespaces/inkscape"
   version="1.0"
   width="161.00055pt"
   height="135.70071pt"
   viewBox="0 0 161.00055 135.70071"
   preserveAspectRatio="xMidYMid meet"
   id="svg38"
   sodipodi:docname="serviclub.svg"
   inkscape:version="0.92.3 (2405546, 2018-03-11)">
  <sodipodi:namedview
     pagecolor="#ffffff"
     bordercolor="#666666"
     borderopacity="1"
     objecttolerance="10"
     gridtolerance="10"
     guidetolerance="10"
     inkscape:pageopacity="0"
     inkscape:pageshadow="2"
     inkscape:window-width="1366"
     inkscape:window-height="713"
     id="namedview2742"
     showgrid="false"
     inkscape:zoom="1.304341"
     inkscape:cx="107.3337"
     inkscape:cy="90.467143"
     inkscape:window-x="0"
     inkscape:window-y="0"
     inkscape:window-maximized="1"
     inkscape:current-layer="svg38" />
  <metadata
     id="metadata44">
    <rdf:RDF>
      <cc:Work
         rdf:about="">
        <dc:format>image/svg+xml</dc:format>
        <dc:type
           rdf:resource="http://purl.org/dc/dcmitype/StillImage" />
        <dc:title />
      </cc:Work>
    </rdf:RDF>
  </metadata>
  <defs
     id="defs42" />
  <path
     style="fill:#3d5afe;stroke:none;stroke-width:0.1;fill-opacity:1"
     id="path2"
     d="m 47.3,1.3632161 c -2,1.4 -3.1,4.3 -6.7,17.4999999 -5.9,22.1 -7.6,28.6 -7.6,29.2 0,0.5 1,0.8 2.3,0.8 2.1,0 2.6,-1 4.8,-9.1 1.3,-5 2.9,-9.3 3.6,-9.6 0.6,-0.3 7.2,1.2 14.5,3.2 69.8,19.2 86.6,23.8 88.6,24.3 1.3,0.2 2.5,1 2.8,1.6 0.7,2.1 -10.2,39.8 -11.8,40.7 -1,0.500004 -3.4,0.300004 -6.4,-0.6 -2.7,-0.8 -4.9,-1.5 -4.9,-1.5 -0.1,0 -0.1,1.2 0,2.700004 0,3.1 2.2,4 9.1,4.2 6.9,0.2 7.7,-1.2 13.5,-22.400004 2.8,-10.5 6.6,-24.6 8.5,-31.5 1.9,-6.9 3.4,-13.9 3.4,-15.6 0,-6.9 0.9,-6.6 -70.5,-25.8999999 -4.9,-1.3 -14.8,-4 -21.9,-5.9 -14.3,-4 -18.1,-4.3 -21.3,-2.1 z m 68.2,19.8999999 c 22.3,6.2 39.5,11.3 40.1,12.2 1.3,1.6 -0.2,8.4 -1.8,8.4 -0.7,0 -30.2,-8 -86.3,-23.4 l -19,-5.2 0.2,-3.3999999 c 0.1,-1.9 0.9,-3.9 1.8,-4.6 1.8,-1.3 -0.7,-1.9 65,15.9999999 z" />
  <g
     id="g881"
     transform="translate(206.98729,6.2530471)"
     style="fill:#3d5afe;fill-opacity:1">
    <path
       d="m -204.48729,51.110169 -2.5,2.4 v 35.6 c 0,34.000001 0.1,35.600001 2,37.500001 1.1,1.1 3,2.2 4.2,2.5 1.3,0.3 26.5,0.4 56,0.3 l 53.7,-0.3 2.3,-2.3 2.3,-2.3 v -35.500001 -35.6 l -2.8,-2.4 -2.8,-2.4 h -55 -55 z m 112.3,3.7 c 0.7,0.7 1.2,2.9 1.2,5 v 3.8 l -55.7,-0.2 -55.8,-0.3 -0.3,-2.7 c -0.2,-1.5 0.2,-3.6 0.8,-4.8 1.1,-2 1.7,-2 54.8,-2 40.5,0 54.1,0.3 55,1.2 z m 1.2,46.600001 c 0,14.8 -0.3,21.1 -1.2,22 -0.9,0.9 -14.5,1.2 -55,1.2 h -53.8 l -1,-2.6 c -0.6,-1.4 -1,-11.3 -1,-22 V 80.610169 h 56 56 z"
       id="path4"
       style="fill:#3d5afe;stroke:none;stroke-width:0.1;fill-opacity:1" />
    <path
       d="m -193.78729,99.810169 0.3,2.300001 33.6,0.3 c 28.6,0.2 33.8,0 34.9,-1.2 0.6,-0.9 0.9,-2.000001 0.5,-2.600001 -0.4,-0.6 -12.2,-1 -35.1,-1 h -34.5 z"
       id="path6"
       style="fill:#3d5afe;stroke:none;stroke-width:0.1;fill-opacity:1" />
    <path
       d="m -193.98729,113.51017 c 0,2.8 1.8,3.1 16.3,3.1 13.6,0 16.4,-0.7 15.4,-3.4 -0.5,-1.4 -2.9,-1.6 -16.2,-1.6 -14.5,0 -15.5,0.1 -15.5,1.9 z"
       id="path8"
       style="fill:#3d5afe;stroke:none;stroke-width:0.1;fill-opacity:1" />
  </g>
</svg>
